# xmcd CD database generated by RipIT
#
# Track frame offsets:
# 150
# 18985
# 41947
# 65226
# 82862
# 110521
# 131999
# 152087
# 173799
# 197179
# 223435
# 243685
# 266373
#
# Disc length: 3956 seconds
#
# Revision: 0
# Processed by: cddbd v1.5.2PL0 Copyright (c) Steve Scherf et al.
# Submitted via: RipIT 3.9.0 www.suwald.com/ripit/ripit.html on 2016-06-07 at 09:36
#
DISCID=c70f720d
DTITLE=The Winery Dogs - Hot Streak
DYEAR=2015
DGENRE=Rock
TTITLE0=Oblivion
TTITLE1=Captain Love
TTITLE2=Hot Streak
TTITLE3=How Long
TTITLE4=Empire
TTITLE5=Fire
TTITLE6=Ghost Town
TTITLE7=The Bridge
TTITLE8=War Machine
TTITLE9=Spiral
TTITLE10=Devil You Know
TTITLE11=Think It Over
TTITLE12=The Lamb
EXTD=
EXTT0=
EXTT1=
EXTT2=
EXTT3=
EXTT4=
EXTT5=
EXTT6=
EXTT7=
EXTT8=
EXTT9=
EXTT10=
EXTT11=
EXTT12=
PLAYORDER=
